<svg width="677" height="456" viewBox="0 0 677 456" fill="none" xmlns="http://www.w3.org/2000/svg">
<rect width="677" height="456" rx="20" fill="black"/>
<path d="M280.116 298.847L280.111 298.851C279.345 299.283 278.478 299.5 277.611 299.5C276.729 299.5 275.836 299.267 275.028 298.803C273.455 297.882 272.5 296.213 272.5 294.4V157.6C272.5 155.786 273.457 154.115 275.033 153.194C276.6 152.285 278.533 152.266 280.117 153.153C280.118 153.154 280.118 153.154 280.118 153.154L401.887 221.549C401.888 221.549 401.888 221.55 401.889 221.55C403.504 222.465 404.5 224.163 404.5 226C404.5 227.838 403.504 229.535 401.889 230.45C401.888 230.451 401.888 230.451 401.887 230.452L280.116 298.847Z" stroke="#FFE600" stroke-width="5"/>
<circle cx="322" cy="226" r="149.5" stroke="#FFE600" stroke-width="5"/>
</svg>
